# xmcd
#
# Track frame offsets:
#	150
#	15886
#	35993
#	53241
#	69936
#	85939
#	104858
#	121157
#	139494
#	153137
#	168272
#
# Disc length: 2435 seconds
#
# Revision: 1
# Processed by: cddbd v1.5.2PL0 Copyright (c) Steve Scherf et al.
# Submitted via: audiograbber 1.83.01
#
DISCID=8e09810b
DTITLE=Josh Turner - ICON
DYEAR=2011
DGENRE=Country
TTITLE0=Firecracker
TTITLE1=As Fast As I Could
TTITLE2=Would You Go With Me
TTITLE3=Backwoods Boy
TTITLE4=Your Man
TTITLE5=Long Black Train
TTITLE6=Everything is Fine
TTITLE7=She'll Go On You
TTITLE8=Me And God
TTITLE9=All Over Me
TTITLE10=Why Don't We Just Dance
EXTD=
EXTT0=
EXTT1=
EXTT2=
EXTT3=
EXTT4=
EXTT5=
EXTT6=
EXTT7=
EXTT8=
EXTT9=
EXTT10=
PLAYORDER=
